<svg width="20" height="20" viewBox="0 0 20 20" fill="none" xmlns="http://www.w3.org/2000/svg">
<path fill-rule="evenodd" clip-rule="evenodd" d="M3.47631 2.64297C2.5 3.61929 2.5 5.19063 2.5 8.33333V11.6667C2.5 14.8093 2.5 16.3807 3.47631 17.357C4.45262 18.3333 6.02397 18.3333 9.16667 18.3333H10.8333C13.976 18.3333 15.5474 18.3333 16.5237 17.357C17.5 16.3807 17.5 14.8093 17.5 11.6667V8.33333C17.5 5.19063 17.5 3.61929 16.5237 2.64297C15.5474 1.66666 13.976 1.66666 10.8333 1.66666H9.16667C6.02397 1.66666 4.45262 1.66666 3.47631 2.64297ZM6.04167 6.66666C6.04167 6.32149 6.32149 6.04166 6.66667 6.04166H13.3333C13.6785 6.04166 13.9583 6.32149 13.9583 6.66666C13.9583 7.01184 13.6785 7.29166 13.3333 7.29166H6.66667C6.32149 7.29166 6.04167 7.01184 6.04167 6.66666ZM6.04167 10C6.04167 9.65483 6.32149 9.375 6.66667 9.375H13.3333C13.6785 9.375 13.9583 9.65483 13.9583 10C13.9583 10.3452 13.6785 10.625 13.3333 10.625H6.66667C6.32149 10.625 6.04167 10.3452 6.04167 10ZM6.66667 12.7083C6.32149 12.7083 6.04167 12.9882 6.04167 13.3333C6.04167 13.6785 6.32149 13.9583 6.66667 13.9583H10.8333C11.1785 13.9583 11.4583 13.6785 11.4583 13.3333C11.4583 12.9882 11.1785 12.7083 10.8333 12.7083H6.66667Z" fill="#9D9D9D"/>
</svg>
