<svg width="20" height="20" viewBox="0 0 20 20" fill="none" xmlns="http://www.w3.org/2000/svg">
<path fill-rule="evenodd" clip-rule="evenodd" d="M6.875 15C6.875 14.6548 7.15482 14.375 7.5 14.375H12.5C12.8452 14.375 13.125 14.6548 13.125 15C13.125 15.3452 12.8452 15.625 12.5 15.625H7.5C7.15482 15.625 6.875 15.3452 6.875 15Z" fill="#9D9D9D"/>
<path fill-rule="evenodd" clip-rule="evenodd" d="M19 10C19 5.02943 14.9705 1 10 1C5.02943 1 1 5.02943 1 10C1 14.9705 5.02943 19 10 19C14.9705 19 19 14.9705 19 10ZM10 4.825C10.3728 4.825 10.675 5.12721 10.675 5.5V10.9C10.675 11.2728 10.3728 11.575 10 11.575C9.62722 11.575 9.325 11.2728 9.325 10.9V5.5C9.325 5.12721 9.62722 4.825 10 4.825ZM10 14.5C10.4971 14.5 10.9 14.0971 10.9 13.6C10.9 13.1029 10.4971 12.7 10 12.7C9.50293 12.7 9.1 13.1029 9.1 13.6C9.1 14.0971 9.50293 14.5 10 14.5Z" fill="#9D9D9D"/>
</svg>
