<svg width="40" height="40" viewBox="0 0 40 40" fill="none" xmlns="http://www.w3.org/2000/svg">
<path d="M33.3333 23.3333C35.1743 23.3333 36.6667 21.841 36.6667 20C36.6667 18.159 35.1743 16.6667 33.3333 16.6667C31.4923 16.6667 30 18.159 30 20C30 21.841 31.4923 23.3333 33.3333 23.3333Z" stroke="#292D32" stroke-width="3" stroke-linecap="round" stroke-linejoin="round"/>
<path d="M33.3333 10C35.1743 10 36.6667 8.50762 36.6667 6.66667C36.6667 4.82572 35.1743 3.33334 33.3333 3.33334C31.4923 3.33334 30 4.82572 30 6.66667C30 8.50762 31.4923 10 33.3333 10Z" stroke="#292D32" stroke-width="3" stroke-linecap="round" stroke-linejoin="round"/>
<path d="M33.3333 36.6667C35.1743 36.6667 36.6667 35.1743 36.6667 33.3333C36.6667 31.4923 35.1743 30 33.3333 30C31.4923 30 30 31.4923 30 33.3333C30 35.1743 31.4923 36.6667 33.3333 36.6667Z" stroke="#292D32" stroke-width="3" stroke-linecap="round" stroke-linejoin="round"/>
<path d="M6.66659 23.3333C8.50754 23.3333 9.99992 21.841 9.99992 20C9.99992 18.159 8.50754 16.6667 6.66659 16.6667C4.82564 16.6667 3.33325 18.159 3.33325 20C3.33325 21.841 4.82564 23.3333 6.66659 23.3333Z" stroke="#292D32" stroke-width="3" stroke-linecap="round" stroke-linejoin="round"/>
<path d="M10 20H30" stroke="#292D32" stroke-width="3" stroke-linecap="round" stroke-linejoin="round"/>
<path d="M29.9999 6.66666H23.3333C19.9999 6.66666 18.3333 8.33333 18.3333 11.6667V28.3333C18.3333 31.6667 19.9999 33.3333 23.3333 33.3333H29.9999" stroke="#292D32" stroke-width="3" stroke-linecap="round" stroke-linejoin="round"/>
</svg>
