<svg width="20" height="20" viewBox="0 0 20 20" fill="none" xmlns="http://www.w3.org/2000/svg">
<path d="M17.1124 2.88706C15.8921 1.66666 13.9278 1.66666 9.9995 1.66666C6.07113 1.66666 4.10694 1.66666 2.88656 2.88706C2.25532 3.51829 1.95058 4.34853 1.80347 5.54665C2.24569 5.05443 2.77705 4.6444 3.37372 4.34038C4.02495 4.00856 4.72228 3.874 5.49438 3.81091C6.24033 3.74997 7.15817 3.74998 8.28047 3.75H11.7185C12.8408 3.74998 13.7587 3.74997 14.5046 3.81091C15.2767 3.874 15.9741 4.00856 16.6252 4.34038C17.2219 4.6444 17.7533 5.05443 18.1955 5.54665C18.0484 4.34853 17.7437 3.51829 17.1124 2.88706Z" fill="#9D9D9D"/>
<path fill-rule="evenodd" clip-rule="evenodd" d="M1.66675 11.6667C1.66675 9.33308 1.66675 8.16634 2.12089 7.27504C2.52036 6.49103 3.15778 5.85361 3.94179 5.45414C4.83309 5 5.99986 5 8.33341 5H11.6667C14.0003 5 15.1671 5 16.0584 5.45414C16.8424 5.85361 17.4798 6.49103 17.8792 7.27504C18.3334 8.16634 18.3334 9.33308 18.3334 11.6667C18.3334 14.0002 18.3334 15.167 17.8792 16.0583C17.4798 16.8423 16.8424 17.4797 16.0584 17.8792C15.1671 18.3333 14.0003 18.3333 11.6667 18.3333H8.33341C5.99986 18.3333 4.83309 18.3333 3.94179 17.8792C3.15778 17.4797 2.52036 16.8423 2.12089 16.0583C1.66675 15.167 1.66675 14.0002 1.66675 11.6667ZM10.442 8.72475C10.3248 8.6075 10.1658 8.54167 10.0001 8.54167C9.83433 8.54167 9.67533 8.6075 9.55816 8.72475L7.47481 10.8081C7.23073 11.0522 7.23073 11.4478 7.47481 11.6919C7.71888 11.936 8.11461 11.936 8.35866 11.6919L9.37508 10.6756V14.1667C9.37508 14.5118 9.65491 14.7917 10.0001 14.7917C10.3452 14.7917 10.6251 14.5118 10.6251 14.1667V10.6756L11.6415 11.6919C11.8856 11.936 12.2812 11.936 12.5253 11.6919C12.7694 11.4478 12.7694 11.0522 12.5253 10.8081L10.442 8.72475Z" fill="#9D9D9D"/>
</svg>
