<svg width="20" height="20" viewBox="0 0 20 20" fill="none" xmlns="http://www.w3.org/2000/svg">
<g clip-path="url(#clip0_125_61)">
<path fill-rule="evenodd" clip-rule="evenodd" d="M6.27238 2.21458C8.2017 1.71942 10.3389 2.22645 11.8521 3.73958C13.5463 5.43386 13.9797 7.90949 13.1554 10.0039L16.9883 13.2471C18.2165 14.2864 18.2942 16.1537 17.1564 17.2914C16.0187 18.4292 14.1515 18.3515 13.1122 17.1232L9.86983 13.2913C7.77473 14.1173 5.29756 13.6842 3.60248 11.9892C2.08918 10.4758 1.5822 8.33833 2.07763 6.40888C2.24368 5.76213 3.06021 5.55734 3.51204 6.04814L6.04899 8.80392L7.96357 8.10038L8.66875 6.18398L5.91197 3.64938C5.42066 3.19768 5.62533 2.38063 6.27238 2.21458Z" fill="#9D9D9D"/>
</g>
<defs>
<clipPath id="clip0_125_61">
<rect width="20" height="20" fill="white"/>
</clipPath>
</defs>
</svg>
